<svg width="500" height="350" viewBox="0 0 500 350" fill="none" xmlns="http://www.w3.org/2000/svg">
<rect width="500" height="350" fill="#F4F4F4"/>
<path d="M176.483 187.364H178.591V194.966C178.591 195.799 178.394 196.532 178 197.165C177.61 197.797 177.061 198.292 176.352 198.648C175.644 199 174.816 199.176 173.869 199.176C172.919 199.176 172.089 199 171.381 198.648C170.672 198.292 170.123 197.797 169.733 197.165C169.343 196.532 169.148 195.799 169.148 194.966V187.364H171.256V194.79C171.256 195.275 171.362 195.706 171.574 196.085C171.79 196.464 172.093 196.761 172.483 196.977C172.873 197.189 173.335 197.295 173.869 197.295C174.403 197.295 174.866 197.189 175.256 196.977C175.65 196.761 175.953 196.464 176.165 196.085C176.377 195.706 176.483 195.275 176.483 194.79V187.364ZM182.848 193.886V199H180.791V190.273H182.757V191.756H182.859C183.06 191.267 183.38 190.879 183.82 190.591C184.263 190.303 184.81 190.159 185.462 190.159C186.064 190.159 186.589 190.288 187.036 190.545C187.486 190.803 187.835 191.176 188.081 191.665C188.331 192.153 188.454 192.746 188.45 193.443V199H186.393V193.761C186.393 193.178 186.242 192.722 185.939 192.392C185.64 192.062 185.225 191.898 184.695 191.898C184.335 191.898 184.015 191.977 183.734 192.136C183.458 192.292 183.24 192.517 183.081 192.812C182.926 193.108 182.848 193.466 182.848 193.886ZM193.053 199.176C192.5 199.176 192.001 199.078 191.558 198.881C191.119 198.68 190.77 198.384 190.513 197.994C190.259 197.604 190.132 197.123 190.132 196.551C190.132 196.059 190.223 195.652 190.405 195.33C190.587 195.008 190.835 194.75 191.149 194.557C191.464 194.364 191.818 194.218 192.212 194.119C192.609 194.017 193.02 193.943 193.445 193.898C193.956 193.845 194.371 193.797 194.689 193.756C195.007 193.71 195.238 193.642 195.382 193.551C195.53 193.456 195.604 193.311 195.604 193.114V193.08C195.604 192.652 195.477 192.32 195.223 192.085C194.969 191.85 194.604 191.733 194.126 191.733C193.623 191.733 193.223 191.843 192.928 192.062C192.636 192.282 192.439 192.542 192.337 192.841L190.416 192.568C190.568 192.038 190.818 191.595 191.166 191.239C191.515 190.879 191.941 190.61 192.445 190.432C192.948 190.25 193.505 190.159 194.115 190.159C194.536 190.159 194.954 190.208 195.371 190.307C195.787 190.405 196.168 190.568 196.513 190.795C196.857 191.019 197.134 191.324 197.342 191.71C197.554 192.097 197.661 192.58 197.661 193.159V199H195.683V197.801H195.615C195.49 198.044 195.314 198.271 195.087 198.483C194.863 198.691 194.581 198.86 194.24 198.989C193.903 199.114 193.507 199.176 193.053 199.176ZM193.587 197.665C194 197.665 194.357 197.583 194.661 197.42C194.964 197.254 195.196 197.034 195.359 196.761C195.526 196.489 195.609 196.191 195.609 195.869V194.841C195.545 194.894 195.435 194.943 195.28 194.989C195.128 195.034 194.958 195.074 194.768 195.108C194.579 195.142 194.392 195.172 194.206 195.199C194.02 195.225 193.859 195.248 193.723 195.267C193.416 195.309 193.142 195.377 192.899 195.472C192.657 195.566 192.465 195.699 192.325 195.869C192.185 196.036 192.115 196.252 192.115 196.517C192.115 196.896 192.253 197.182 192.53 197.375C192.806 197.568 193.159 197.665 193.587 197.665ZM199.82 199V187.364H201.876V191.716H201.962C202.068 191.504 202.217 191.278 202.411 191.04C202.604 190.797 202.865 190.591 203.195 190.42C203.524 190.246 203.945 190.159 204.456 190.159C205.13 190.159 205.738 190.331 206.28 190.676C206.825 191.017 207.257 191.523 207.575 192.193C207.897 192.86 208.058 193.678 208.058 194.648C208.058 195.606 207.901 196.42 207.587 197.091C207.272 197.761 206.844 198.273 206.303 198.625C205.761 198.977 205.147 199.153 204.462 199.153C203.962 199.153 203.547 199.07 203.217 198.903C202.888 198.737 202.623 198.536 202.422 198.301C202.225 198.062 202.071 197.837 201.962 197.625H201.842V199H199.82ZM201.837 194.636C201.837 195.201 201.916 195.695 202.075 196.119C202.238 196.544 202.471 196.875 202.774 197.114C203.081 197.348 203.452 197.466 203.888 197.466C204.342 197.466 204.723 197.345 205.03 197.102C205.337 196.856 205.568 196.521 205.723 196.097C205.882 195.669 205.962 195.182 205.962 194.636C205.962 194.095 205.884 193.614 205.729 193.193C205.573 192.773 205.342 192.443 205.036 192.205C204.729 191.966 204.346 191.847 203.888 191.847C203.448 191.847 203.075 191.962 202.768 192.193C202.462 192.424 202.229 192.748 202.07 193.165C201.914 193.581 201.837 194.072 201.837 194.636ZM211.864 187.364V199H209.807V187.364H211.864ZM217.842 199.17C216.967 199.17 216.212 198.989 215.575 198.625C214.943 198.258 214.456 197.739 214.115 197.068C213.774 196.394 213.604 195.6 213.604 194.688C213.604 193.79 213.774 193.002 214.115 192.324C214.46 191.642 214.941 191.112 215.558 190.733C216.176 190.35 216.901 190.159 217.734 190.159C218.272 190.159 218.78 190.246 219.257 190.42C219.738 190.591 220.162 190.856 220.53 191.216C220.901 191.576 221.193 192.034 221.405 192.591C221.617 193.144 221.723 193.803 221.723 194.568V195.199H214.57V193.812H219.751C219.748 193.419 219.662 193.068 219.496 192.761C219.329 192.451 219.096 192.206 218.797 192.028C218.501 191.85 218.157 191.761 217.763 191.761C217.342 191.761 216.973 191.864 216.655 192.068C216.337 192.269 216.089 192.534 215.911 192.864C215.736 193.189 215.647 193.547 215.643 193.938V195.148C215.643 195.655 215.736 196.091 215.922 196.455C216.107 196.814 216.367 197.091 216.7 197.284C217.034 197.473 217.424 197.568 217.871 197.568C218.17 197.568 218.441 197.527 218.683 197.443C218.926 197.356 219.136 197.229 219.314 197.062C219.492 196.896 219.626 196.689 219.717 196.443L221.638 196.659C221.517 197.167 221.286 197.61 220.945 197.989C220.607 198.364 220.176 198.655 219.649 198.864C219.123 199.068 218.52 199.17 217.842 199.17ZM231.79 190.273V191.864H226.773V190.273H231.79ZM228.011 188.182H230.068V196.375C230.068 196.652 230.11 196.864 230.193 197.011C230.28 197.155 230.394 197.254 230.534 197.307C230.674 197.36 230.83 197.386 231 197.386C231.129 197.386 231.246 197.377 231.352 197.358C231.462 197.339 231.545 197.322 231.602 197.307L231.949 198.915C231.839 198.953 231.682 198.994 231.477 199.04C231.277 199.085 231.03 199.112 230.739 199.119C230.223 199.134 229.759 199.057 229.347 198.886C228.934 198.712 228.606 198.443 228.364 198.08C228.125 197.716 228.008 197.261 228.011 196.716V188.182ZM237.223 199.17C236.371 199.17 235.632 198.983 235.007 198.608C234.382 198.233 233.897 197.708 233.553 197.034C233.212 196.36 233.041 195.572 233.041 194.67C233.041 193.769 233.212 192.979 233.553 192.301C233.897 191.623 234.382 191.097 235.007 190.722C235.632 190.347 236.371 190.159 237.223 190.159C238.075 190.159 238.814 190.347 239.439 190.722C240.064 191.097 240.547 191.623 240.888 192.301C241.232 192.979 241.405 193.769 241.405 194.67C241.405 195.572 241.232 196.36 240.888 197.034C240.547 197.708 240.064 198.233 239.439 198.608C238.814 198.983 238.075 199.17 237.223 199.17ZM237.234 197.523C237.696 197.523 238.083 197.396 238.393 197.142C238.704 196.884 238.935 196.54 239.087 196.108C239.242 195.676 239.32 195.195 239.32 194.665C239.32 194.131 239.242 193.648 239.087 193.216C238.935 192.78 238.704 192.434 238.393 192.176C238.083 191.919 237.696 191.79 237.234 191.79C236.761 191.79 236.367 191.919 236.053 192.176C235.742 192.434 235.509 192.78 235.354 193.216C235.202 193.648 235.126 194.131 235.126 194.665C235.126 195.195 235.202 195.676 235.354 196.108C235.509 196.54 235.742 196.884 236.053 197.142C236.367 197.396 236.761 197.523 237.234 197.523ZM249.176 187.364V199H247.119V187.364H249.176ZM255.098 199.17C254.246 199.17 253.507 198.983 252.882 198.608C252.257 198.233 251.772 197.708 251.428 197.034C251.087 196.36 250.916 195.572 250.916 194.67C250.916 193.769 251.087 192.979 251.428 192.301C251.772 191.623 252.257 191.097 252.882 190.722C253.507 190.347 254.246 190.159 255.098 190.159C255.95 190.159 256.689 190.347 257.314 190.722C257.939 191.097 258.422 191.623 258.763 192.301C259.107 192.979 259.28 193.769 259.28 194.67C259.28 195.572 259.107 196.36 258.763 197.034C258.422 197.708 257.939 198.233 257.314 198.608C256.689 198.983 255.95 199.17 255.098 199.17ZM255.109 197.523C255.571 197.523 255.958 197.396 256.268 197.142C256.579 196.884 256.81 196.54 256.962 196.108C257.117 195.676 257.195 195.195 257.195 194.665C257.195 194.131 257.117 193.648 256.962 193.216C256.81 192.78 256.579 192.434 256.268 192.176C255.958 191.919 255.571 191.79 255.109 191.79C254.636 191.79 254.242 191.919 253.928 192.176C253.617 192.434 253.384 192.78 253.229 193.216C253.077 193.648 253.001 194.131 253.001 194.665C253.001 195.195 253.077 195.676 253.229 196.108C253.384 196.54 253.617 196.884 253.928 197.142C254.242 197.396 254.636 197.523 255.109 197.523ZM263.537 199.176C262.984 199.176 262.486 199.078 262.043 198.881C261.603 198.68 261.255 198.384 260.997 197.994C260.743 197.604 260.616 197.123 260.616 196.551C260.616 196.059 260.707 195.652 260.889 195.33C261.071 195.008 261.319 194.75 261.634 194.557C261.948 194.364 262.302 194.218 262.696 194.119C263.094 194.017 263.505 193.943 263.929 193.898C264.44 193.845 264.855 193.797 265.173 193.756C265.491 193.71 265.723 193.642 265.866 193.551C266.014 193.456 266.088 193.311 266.088 193.114V193.08C266.088 192.652 265.961 192.32 265.707 192.085C265.454 191.85 265.088 191.733 264.611 191.733C264.107 191.733 263.707 191.843 263.412 192.062C263.12 192.282 262.923 192.542 262.821 192.841L260.901 192.568C261.052 192.038 261.302 191.595 261.651 191.239C261.999 190.879 262.425 190.61 262.929 190.432C263.433 190.25 263.99 190.159 264.599 190.159C265.02 190.159 265.438 190.208 265.855 190.307C266.272 190.405 266.652 190.568 266.997 190.795C267.342 191.019 267.618 191.324 267.827 191.71C268.039 192.097 268.145 192.58 268.145 193.159V199H266.168V197.801H266.099C265.974 198.044 265.798 198.271 265.571 198.483C265.348 198.691 265.065 198.86 264.724 198.989C264.387 199.114 263.991 199.176 263.537 199.176ZM264.071 197.665C264.484 197.665 264.842 197.583 265.145 197.42C265.448 197.254 265.681 197.034 265.844 196.761C266.01 196.489 266.094 196.191 266.094 195.869V194.841C266.029 194.894 265.92 194.943 265.764 194.989C265.613 195.034 265.442 195.074 265.253 195.108C265.063 195.142 264.876 195.172 264.69 195.199C264.505 195.225 264.344 195.248 264.207 195.267C263.901 195.309 263.626 195.377 263.384 195.472C263.141 195.566 262.95 195.699 262.81 195.869C262.67 196.036 262.599 196.252 262.599 196.517C262.599 196.896 262.738 197.182 263.014 197.375C263.291 197.568 263.643 197.665 264.071 197.665ZM273.452 199.153C272.766 199.153 272.152 198.977 271.611 198.625C271.069 198.273 270.641 197.761 270.327 197.091C270.012 196.42 269.855 195.606 269.855 194.648C269.855 193.678 270.014 192.86 270.332 192.193C270.654 191.523 271.088 191.017 271.634 190.676C272.179 190.331 272.787 190.159 273.457 190.159C273.969 190.159 274.389 190.246 274.719 190.42C275.048 190.591 275.31 190.797 275.503 191.04C275.696 191.278 275.846 191.504 275.952 191.716H276.037V187.364H278.099V199H276.077V197.625H275.952C275.846 197.837 275.692 198.062 275.491 198.301C275.291 198.536 275.026 198.737 274.696 198.903C274.366 199.07 273.952 199.153 273.452 199.153ZM274.026 197.466C274.461 197.466 274.832 197.348 275.139 197.114C275.446 196.875 275.679 196.544 275.838 196.119C275.997 195.695 276.077 195.201 276.077 194.636C276.077 194.072 275.997 193.581 275.838 193.165C275.683 192.748 275.452 192.424 275.145 192.193C274.842 191.962 274.469 191.847 274.026 191.847C273.567 191.847 273.185 191.966 272.878 192.205C272.571 192.443 272.34 192.773 272.185 193.193C272.029 193.614 271.952 194.095 271.952 194.636C271.952 195.182 272.029 195.669 272.185 196.097C272.344 196.521 272.577 196.856 272.884 197.102C273.194 197.345 273.575 197.466 274.026 197.466ZM284.26 199V190.273H286.226V191.756H286.328C286.51 191.256 286.811 190.866 287.232 190.585C287.652 190.301 288.154 190.159 288.737 190.159C289.328 190.159 289.826 190.303 290.232 190.591C290.641 190.875 290.929 191.263 291.095 191.756H291.186C291.379 191.271 291.705 190.884 292.163 190.597C292.625 190.305 293.173 190.159 293.805 190.159C294.608 190.159 295.264 190.413 295.771 190.92C296.279 191.428 296.533 192.169 296.533 193.142V199H294.47V193.46C294.47 192.919 294.326 192.523 294.038 192.273C293.75 192.019 293.398 191.892 292.982 191.892C292.485 191.892 292.097 192.047 291.817 192.358C291.54 192.665 291.402 193.064 291.402 193.557V199H289.385V193.375C289.385 192.924 289.249 192.564 288.976 192.295C288.707 192.027 288.355 191.892 287.919 191.892C287.624 191.892 287.355 191.968 287.112 192.119C286.87 192.267 286.677 192.477 286.533 192.75C286.389 193.019 286.317 193.333 286.317 193.693V199H284.26ZM302.483 199.17C301.608 199.17 300.852 198.989 300.216 198.625C299.583 198.258 299.097 197.739 298.756 197.068C298.415 196.394 298.244 195.6 298.244 194.688C298.244 193.79 298.415 193.002 298.756 192.324C299.1 191.642 299.581 191.112 300.199 190.733C300.816 190.35 301.542 190.159 302.375 190.159C302.913 190.159 303.42 190.246 303.898 190.42C304.379 190.591 304.803 190.856 305.17 191.216C305.542 191.576 305.833 192.034 306.045 192.591C306.258 193.144 306.364 193.803 306.364 194.568V195.199H299.21V193.812H304.392C304.388 193.419 304.303 193.068 304.136 192.761C303.97 192.451 303.737 192.206 303.438 192.028C303.142 191.85 302.797 191.761 302.403 191.761C301.983 191.761 301.614 191.864 301.295 192.068C300.977 192.269 300.729 192.534 300.551 192.864C300.377 193.189 300.288 193.547 300.284 193.938V195.148C300.284 195.655 300.377 196.091 300.562 196.455C300.748 196.814 301.008 197.091 301.341 197.284C301.674 197.473 302.064 197.568 302.511 197.568C302.811 197.568 303.081 197.527 303.324 197.443C303.566 197.356 303.777 197.229 303.955 197.062C304.133 196.896 304.267 196.689 304.358 196.443L306.278 196.659C306.157 197.167 305.926 197.61 305.585 197.989C305.248 198.364 304.816 198.655 304.29 198.864C303.763 199.068 303.161 199.17 302.483 199.17ZM311.342 199.153C310.657 199.153 310.043 198.977 309.501 198.625C308.96 198.273 308.532 197.761 308.217 197.091C307.903 196.42 307.746 195.606 307.746 194.648C307.746 193.678 307.905 192.86 308.223 192.193C308.545 191.523 308.979 191.017 309.524 190.676C310.07 190.331 310.678 190.159 311.348 190.159C311.859 190.159 312.28 190.246 312.609 190.42C312.939 190.591 313.2 190.797 313.393 191.04C313.587 191.278 313.736 191.504 313.842 191.716H313.928V187.364H315.99V199H313.967V197.625H313.842C313.736 197.837 313.583 198.062 313.382 198.301C313.181 198.536 312.916 198.737 312.587 198.903C312.257 199.07 311.842 199.153 311.342 199.153ZM311.916 197.466C312.352 197.466 312.723 197.348 313.03 197.114C313.337 196.875 313.57 196.544 313.729 196.119C313.888 195.695 313.967 195.201 313.967 194.636C313.967 194.072 313.888 193.581 313.729 193.165C313.573 192.748 313.342 192.424 313.036 192.193C312.732 191.962 312.359 191.847 311.916 191.847C311.458 191.847 311.075 191.966 310.768 192.205C310.462 192.443 310.231 192.773 310.075 193.193C309.92 193.614 309.842 194.095 309.842 194.636C309.842 195.182 309.92 195.669 310.075 196.097C310.234 196.521 310.467 196.856 310.774 197.102C311.085 197.345 311.465 197.466 311.916 197.466ZM318.182 199V190.273H320.239V199H318.182ZM319.216 189.034C318.89 189.034 318.61 188.926 318.375 188.71C318.14 188.491 318.023 188.227 318.023 187.92C318.023 187.61 318.14 187.347 318.375 187.131C318.61 186.911 318.89 186.801 319.216 186.801C319.545 186.801 319.826 186.911 320.057 187.131C320.292 187.347 320.409 187.61 320.409 187.92C320.409 188.227 320.292 188.491 320.057 188.71C319.826 188.926 319.545 189.034 319.216 189.034ZM324.865 199.176C324.312 199.176 323.814 199.078 323.371 198.881C322.931 198.68 322.583 198.384 322.325 197.994C322.071 197.604 321.945 197.123 321.945 196.551C321.945 196.059 322.036 195.652 322.217 195.33C322.399 195.008 322.647 194.75 322.962 194.557C323.276 194.364 323.63 194.218 324.024 194.119C324.422 194.017 324.833 193.943 325.257 193.898C325.768 193.845 326.183 193.797 326.501 193.756C326.82 193.71 327.051 193.642 327.195 193.551C327.342 193.456 327.416 193.311 327.416 193.114V193.08C327.416 192.652 327.289 192.32 327.036 192.085C326.782 191.85 326.416 191.733 325.939 191.733C325.435 191.733 325.036 191.843 324.74 192.062C324.448 192.282 324.251 192.542 324.149 192.841L322.229 192.568C322.38 192.038 322.63 191.595 322.979 191.239C323.327 190.879 323.753 190.61 324.257 190.432C324.761 190.25 325.318 190.159 325.928 190.159C326.348 190.159 326.767 190.208 327.183 190.307C327.6 190.405 327.981 190.568 328.325 190.795C328.67 191.019 328.946 191.324 329.155 191.71C329.367 192.097 329.473 192.58 329.473 193.159V199H327.496V197.801H327.428C327.303 198.044 327.126 198.271 326.899 198.483C326.676 198.691 326.393 198.86 326.053 198.989C325.715 199.114 325.32 199.176 324.865 199.176ZM325.399 197.665C325.812 197.665 326.17 197.583 326.473 197.42C326.776 197.254 327.009 197.034 327.172 196.761C327.339 196.489 327.422 196.191 327.422 195.869V194.841C327.357 194.894 327.248 194.943 327.092 194.989C326.941 195.034 326.77 195.074 326.581 195.108C326.392 195.142 326.204 195.172 326.018 195.199C325.833 195.225 325.672 195.248 325.536 195.267C325.229 195.309 324.954 195.377 324.712 195.472C324.469 195.566 324.278 195.699 324.138 195.869C323.998 196.036 323.928 196.252 323.928 196.517C323.928 196.896 324.066 197.182 324.342 197.375C324.619 197.568 324.971 197.665 325.399 197.665Z" fill="black"/>
<path d="M251 144H240C239.735 144 239.48 144.105 239.293 144.293C239.105 144.48 239 144.735 239 145V167C239 167.265 239.105 167.52 239.293 167.707C239.48 167.895 239.735 168 240 168H258C258.265 168 258.52 167.895 258.707 167.707C258.895 167.52 259 167.265 259 167V152H252C251.735 152 251.48 151.895 251.293 151.707C251.105 151.52 251 151.265 251 151V144Z" fill="#111111"/>
<path d="M258.414 150H253V144.586L258.414 150Z" fill="#111111"/>
</svg>
