<svg fill="none" height="16" viewBox="0 0 16 16" width="16" xmlns="http://www.w3.org/2000/svg" xmlns:xlink="http://www.w3.org/1999/xlink"><clipPath id="a"><path d="m0 0h16v16h-16z"/></clipPath><g clip-path="url(#a)" fill="#fff"><path d="m6.55202 6.71203c-.22291.01833-.43077.11984-.5823.28434-.15153.16451-.23565.37999-.23565.60366 0 .22366.08412.43914.23565.60365s.35939.26601.5823.28435c.11191-.00463.22182-.03129.32343-.07844.1016-.04715.19292-.11387.26871-.19635s.13457-.1791.17299-.28432c.03841-.10522.05569-.21698.05087-.32889.0055-.11207-.01132-.22412-.04949-.32963-.03816-.10551-.09691-.20239-.17283-.28501-.07592-.08261-.16749-.14933-.26941-.19625-.10192-.04693-.21214-.07314-.32427-.07711zm2.92 0c-.17878-.01511-.35796.02411-.51407.11253-.15612.08841-.28191.22189-.36091.38298s-.10753.34227-.08185.51984c.02567.17757.10436.34325.22576.47536.12139.1321.27985.22449.45462.26505.17476.04057.35771.02742.52489-.03771.16717-.06512.31084-.17921.41204-.32731.1013-.1481.1555-.32333.1555-.50274.0048-.11192-.0124-.22368-.0509-.3289-.0384-.10522-.0971-.20184-.1729-.28432-.07583-.08248-.16714-.1492-.26875-.19635s-.21152-.07381-.32343-.07843z"/><path d="m13.36 0h-10.72c-.21589.00052465-.42956.0435677-.62882.126671-.19926.083104-.3802.204641-.53249.357672-.15229.153032-.27294.33456-.35508.534217-.08213.19966-.124131.41355-.12361.62944v10.816c-.000521.2159.04148.4298.12361.6294.08214.1997.20279.3812.35508.5343.15229.153.33323.2745.53249.3576s.41293.1262.62882.1267h9.072l-.424-1.48 1.024.952.968.9 1.72 1.516v-14.352c.0005-.21589-.0415-.42978-.1236-.62944-.0821-.199657-.2028-.381185-.3551-.534217-.1523-.153031-.3332-.274568-.5325-.357672-.1992-.0831033-.4129-.12614635-.6288-.126671zm-3.088 10.448s-.288-.348-.52799-.648c.57989-.1365 1.09279-.47373 1.44799-.952-.2879.19157-.5965.34992-.92.472-.37216.15886-.76139.27429-1.15999.344-.68516.12624-1.38785.12353-2.07201-.008-.40166-.07859-.7953-.19374-1.176-.344-.32038-.12343-.62622-.28171-.912-.472.34236.46824.83756.80215 1.40001.944-.24.3-.53601.664-.53601.664-.47522.0128-.94631-.0914-1.37179-.3034-.42549-.21205-.79232-.52544-1.06821-.9126.02597-1.62183.41987-3.21659 1.152-4.664.64429-.50601 1.42977-.79952 2.248-.84l.08.1c-.76836.19115-1.48529.54893-2.1 1.048 0 0 .176-.1.472-.232.57528-.26111 1.18815-.42985 1.816-.5.04479-.00927.09029-.01462.136-.016.5343-.07352 1.07547-.08292 1.612-.028.84508.09651 1.6631.35741 2.408.768-.5849-.47443-1.26389-.81936-1.992-1.012l.112-.128c.8182.04048 1.6037.33399 2.248.84.7321 1.44741 1.126 3.04217 1.152 4.664-.2781.38677-.6465.69973-1.0732.9117-.4266.2119-.8986.3164-1.3748.3043z"/></g></svg>