<svg fill="none" height="24" viewBox="0 0 24 24" width="24" xmlns="http://www.w3.org/2000/svg"><path d="m19.6512 6.26c-1.4342-.59-2.9573-1.02-4.5472-1.26-.2001.31-.4225.73-.5781 1.06-1.691-.22001-3.3698-.22001-5.03751 0-.15566-.33-.38914-.75-.57816-1.06-1.60093.24-3.12407.67-4.54826 1.26-2.8795 3.82-3.657754 7.55-3.26863 11.2299 1.91226 1.25 3.75783 2.0101 5.57115 2.5101.44471-.54.84496-1.1201 1.18961-1.73-.65595-.22-1.27855-.49-1.87891-.8101.15565-.0999.3113-.2099.45583-.3199 3.62438 1.49 7.55008 1.49 11.12998 0 .1557.11.3002.22.4559.3199-.6004.3201-1.223.5901-1.879.8101.3447.6099.745 1.19 1.1896 1.73 1.8123-.5 3.6689-1.2601 5.5712-2.5101.478-4.2599-.7571-7.95988-3.2475-11.2299zm-11.29681 8.96c-1.08956 0-1.97898-.89-1.97898-1.98s.86719-1.98 1.97898-1.98c1.10064 0 2.00111.89 1.97891 1.98 0 1.09-.87827 1.98-1.97891 1.98zm7.30551 0c-1.0896 0-1.9801-.89-1.9801-1.98s.8683-1.98 1.9801-1.98c1.1007 0 2.0012.89 1.979 1.98 0 1.09-.8672 1.98-1.979 1.98z" fill="#000"/></svg>