<svg fill="none" height="18" viewBox="0 0 18 18" width="18" xmlns="http://www.w3.org/2000/svg"><path clip-rule="evenodd" d="m9 1.62149c2.4031 0 2.688.00902 3.6368.05251 1.0245.0465 1.9747.25199 2.706.98327.7311.73123.9367 1.68146.9832 2.70598.0434.94876.0524 1.23377.0524 3.63675 0 2.403-.009 2.688-.0524 3.6367-.0465 1.0246-.2521 1.9748-.9832 2.7061-.7313.7312-1.6815.9367-2.706.9832-.9488.0435-1.2337.0525-3.6368.0525-2.40308 0-2.68799-.009-3.63684-.0525-1.02448-.0465-1.97461-.252-2.70593-.9832-.73114-.7313-.93677-1.6815-.98328-2.7061-.0434-.9487-.05237-1.2337-.05237-3.6367 0-2.40298.00897-2.68799.05237-3.63675.04651-1.02452.25214-1.97475.98328-2.70598.73132-.73128 1.68145-.93677 2.70593-.98327.94885-.04349 1.23376-.05251 3.63684-.05251zm0-1.62149c-2.44427 0-2.75098.0104828-3.711.0540161-1.46246.0667419-2.74731.4252169-3.77856 1.4564639-1.031253 1.03125-1.389773 2.31601-1.4564239 3.77852-.0435791.95998-.0540161 1.26677-.0540161 3.711 0 2.4442.010437 2.751.0540161 3.711.0666509 1.4625.4251709 2.7473 1.4564239 3.7785 1.03125 1.0313 2.3161 1.3897 3.77856 1.4565.96002.0435 1.26673.054 3.711.054 2.4443 0 2.751-.0105 3.711-.054 1.4625-.0668 2.7473-.4252 3.7786-1.4565 1.0312-1.0312 1.3897-2.316 1.4564-3.7785.0436-.96.054-1.2668.054-3.711 0-2.44423-.0104-2.75102-.054-3.711-.0667-1.46251-.4252-2.74727-1.4564-3.77852-1.0313-1.031247-2.3161-1.389722-3.7786-1.4564639-.96-.0435333-1.2667-.0540161-3.711-.0540161zm0 4.37851c-2.55231 0-4.62158 2.06923-4.62158 4.62149 0 2.5523 2.06927 4.6215 4.62158 4.6215 2.5521 0 4.6214-2.0692 4.6214-4.6215 0-2.55226-2.0693-4.62149-4.6214-4.62149zm0 7.62149c-1.65692 0-3-1.3433-3-3 0-1.65674 1.34308-3 3-3 1.6567 0 3 1.34326 3 3 0 1.6567-1.3433 3-3 3zm5.8845-7.8045c0 .59646-.4834 1.08-1.08 1.08-.5964 0-1.08-.48354-1.08-1.08 0-.59647.4836-1.08001 1.08-1.08001.5966 0 1.08.48354 1.08 1.08001z" fill="#111" fill-rule="evenodd"/></svg>