<svg fill="none" height="16" viewBox="0 0 16 16" width="16" xmlns="http://www.w3.org/2000/svg"><g fill="#fff"><path d="m12.145 4.85201c.5302 0 .96-.42981.96-.96 0-.5302-.4298-.96-.96-.96s-.96.4298-.96.96c0 .53019.4298.96.96.96z"/><path d="m8 12c-2.206 0-4-1.794-4-4s1.794-4 4-4 4 1.794 4 4-1.794 4-4 4zm0-6c-1.103 0-2 .897-2 2s.897 2 2 2 2-.897 2-2-.897-2-2-2z"/><path d="m12 16h-8c-2.056 0-4-1.944-4-4v-8c0-2.056 1.944-4 4-4h8c2.056 0 4 1.944 4 4v8c0 2.056-1.944 4-4 4zm-8-14c-.935 0-2 1.065-2 2v8c0 .953 1.047 2 2 2h8c.935 0 2-1.065 2-2v-8c0-.935-1.065-2-2-2z"/></g></svg>