<svg fill="none" height="15" viewBox="0 0 18 15" width="18" xmlns="http://www.w3.org/2000/svg"><path d="m18 1.77835c-.675.30928-1.35.54124-2.1.61856.75-.46392 1.35-1.23712 1.65-2.087632-.75.463918-1.5.773192-2.325.927832-.675-.773192-1.65-1.23711-2.7-1.23711-2.025 0-3.675 1.70103-3.675 3.78866 0 .30928 0 .61856.075.85051-3.15-.15463-5.85-1.70103-7.65-4.020613-.375.618553-.525 1.237113-.525 1.932993 0 1.31443.675 2.47422 1.65 3.1701-.6 0-1.2-.15464-1.65-.46392v.07732c0 1.85567 1.275 3.40206 2.925 3.71134-.3.07732-.6.15464-.975.15464-.225 0-.45 0-.675-.07732.45 1.54639 1.8 2.62889 3.45 2.62889-1.275 1.0051-2.85 1.6237-4.575 1.6237-.3 0-.6 0-.9-.0773 1.65 1.0824 3.6 1.701 5.625 1.701 6.825 0 10.5-5.79897 10.5-10.82474 0-.15464 0-.30928 0-.46392.75-.54124 1.35-1.23711 1.875-1.93299z" fill="#111"/></svg>