<svg width="24" height="24" viewBox="0 0 24 24" fill="none" xmlns="http://www.w3.org/2000/svg">
<g clip-path="url(#clip0)">
<path d="M5 7.5C6.65685 7.5 8 6.15685 8 4.5C8 2.84315 6.65685 1.5 5 1.5C3.34315 1.5 2 2.84315 2 4.5C2 6.15685 3.34315 7.5 5 7.5Z" fill="black"/>
<path d="M19 7.5C20.6569 7.5 22 6.15685 22 4.5C22 2.84315 20.6569 1.5 19 1.5C17.3431 1.5 16 2.84315 16 4.5C16 6.15685 17.3431 7.5 19 7.5Z" fill="black"/>
<path d="M20.0001 9C17.1251 9 15.6411 11.065 14.7501 12.324C14.2378 13.1172 13.6194 13.8365 12.9121 14.462C13.3019 14.7101 13.6057 15.0726 13.7818 15.4998C13.9579 15.927 13.9978 16.3982 13.8961 16.849C14.6959 16.2895 15.4054 15.611 16.0001 14.837V22C16.0001 22.2652 16.1055 22.5196 16.293 22.7071C16.4805 22.8946 16.7349 23 17.0001 23H23.0001C23.2653 23 23.5197 22.8946 23.7072 22.7071C23.8948 22.5196 24.0001 22.2652 24.0001 22V13C24.0001 11.9391 23.5787 10.9217 22.8285 10.1716C22.0784 9.42143 21.061 9 20.0001 9Z" fill="black"/>
<path d="M12.268 15.231C11.0187 14.5513 9.97598 13.547 9.25 12.324C8.359 11.065 6.875 9 4 9C2.93913 9 1.92172 9.42143 1.17157 10.1716C0.421427 10.9217 0 11.9391 0 13L0 22C0 22.2652 0.105357 22.5196 0.292893 22.7071C0.48043 22.8946 0.734784 23 1 23H7C7.26522 23 7.51957 22.8946 7.70711 22.7071C7.89464 22.5196 8 22.2652 8 22V14.837C8.83633 15.9417 9.91322 16.8414 11.149 17.468C11.4445 17.607 11.7826 17.6249 12.0911 17.5179C12.3997 17.411 12.6541 17.1876 12.8002 16.8956C12.9463 16.6036 12.9724 16.266 12.873 15.955C12.7735 15.6439 12.5564 15.3841 12.268 15.231Z" fill="black"/>
</g>
<defs>
<clipPath id="clip0">
<rect width="24" height="24" fill="white"/>
</clipPath>
</defs>
</svg>
