<svg width="23" height="23" viewBox="0 0 23 23" fill="none" xmlns="http://www.w3.org/2000/svg">
<path d="M17 0C15.8133 0 14.6533 0.351894 13.6666 1.01118C12.6799 1.67047 11.9109 2.60754 11.4567 3.7039C11.0026 4.80026 10.8838 6.00666 11.1153 7.17054C11.3468 8.33443 11.9182 9.40353 12.7574 10.2426C13.5965 11.0818 14.6656 11.6532 15.8295 11.8847C16.9933 12.1162 18.1997 11.9974 19.2961 11.5433C20.3925 11.0892 21.3295 10.3201 21.9888 9.33342C22.6481 8.34673 23 7.18669 23 6C23 4.4087 22.3679 2.88258 21.2426 1.75736C20.1174 0.632141 18.5913 0 17 0V0ZM20 7H18V9H16V7H14V5H16V3H18V5H20V7Z" fill="black"/>
<path d="M18 23H1C0.734784 23 0.48043 22.8946 0.292893 22.7071C0.105357 22.5196 0 22.2652 0 22V5C0 4.73478 0.105357 4.48043 0.292893 4.29289C0.48043 4.10536 0.734784 4 1 4H9V6H2V21H17V14H19V22C19 22.2652 18.8946 22.5196 18.7071 22.7071C18.5196 22.8946 18.2652 23 18 23Z" fill="black"/>
</svg>
