<svg fill="none" height="16" viewBox="0 0 16 16" width="16" xmlns="http://www.w3.org/2000/svg"><path d="m15.637 2.16199-7.5-2.1420015c-.08948-.02600031-.18452-.02600031-.274 0l-7.5 2.1420015c-.104581.02979-.196597.09287-.262102.17967-.0655051.0868-.10092737.19259-.10089798.30133 0 10.41001 7.75299998 13.30001 7.83199998 13.32801.10865.0387.22735.0387.336 0 .079-.028 7.832-2.918 7.832-13.32801 0-.10874-.0354-.21453-.1009-.30133s-.1575-.14988-.2621-.17967zm-5.363 8.33801-2.274-1.20001-2.274 1.20001.435-2.53101-1.842-1.795 2.544-.369 1.137-2.305 1.137 2.3 2.544.369-1.842 1.8z" fill="#808080"/></svg>