<svg width="16" height="16" viewBox="0 0 16 16" fill="none" xmlns="http://www.w3.org/2000/svg">
<g clip-path="url(#clip0)">
<path d="M6 5.33349C5.99465 5.24455 6.00823 5.15549 6.03984 5.07218C6.07145 4.98887 6.12038 4.91322 6.18338 4.85021C6.24639 4.78721 6.32204 4.73828 6.40535 4.70667C6.48866 4.67506 6.57772 4.66148 6.66666 4.66683H12V0.666825C12.0053 0.577883 11.9918 0.488818 11.9601 0.405512C11.9285 0.322205 11.8796 0.246551 11.8166 0.183546C11.7536 0.120541 11.6779 0.0716173 11.5946 0.0400053C11.5113 0.00839332 11.4223 -0.0051878 11.3333 0.000158621H1.33333C1.24439 -0.0051878 1.15532 0.00839332 1.07202 0.0400053C0.988709 0.0716173 0.913055 0.120541 0.85005 0.183546C0.787045 0.246551 0.738121 0.322205 0.706509 0.405512C0.674897 0.488818 0.661316 0.577883 0.666663 0.666825V12.6668C0.661316 12.7558 0.674897 12.8448 0.706509 12.9281C0.738121 13.0114 0.787045 13.0871 0.85005 13.1501C0.913055 13.2131 0.988709 13.262 1.07202 13.2936C1.15532 13.3253 1.24439 13.3388 1.33333 13.3335H6V5.33349Z" fill="#111111"/>
<path d="M14.6667 6.00016H7.99999C7.91104 5.99481 7.82198 6.00839 7.73867 6.04001C7.65537 6.07162 7.57971 6.12054 7.51671 6.18355C7.4537 6.24655 7.40478 6.3222 7.37317 6.40551C7.34155 6.48882 7.32797 6.57788 7.33332 6.66683V15.3335C7.32797 15.4224 7.34155 15.5115 7.37317 15.5948C7.40478 15.6781 7.4537 15.7538 7.51671 15.8168C7.57971 15.8798 7.65537 15.9287 7.73867 15.9603C7.82198 15.9919 7.91104 16.0055 7.99999 16.0002H14.6667C14.7556 16.0055 14.8447 15.9919 14.928 15.9603C15.0113 15.9287 15.0869 15.8798 15.1499 15.8168C15.2129 15.7538 15.2619 15.6781 15.2935 15.5948C15.3251 15.5115 15.3387 15.4224 15.3333 15.3335V6.66683C15.3387 6.57788 15.3251 6.48882 15.2935 6.40551C15.2619 6.3222 15.2129 6.24655 15.1499 6.18355C15.0869 6.12054 15.0113 6.07162 14.928 6.04001C14.8447 6.00839 14.7556 5.99481 14.6667 6.00016Z" fill="#111111"/>
</g>
<defs>
<clipPath id="clip0">
<rect width="16" height="16" fill="white"/>
</clipPath>
</defs>
</svg>
