<svg fill="none" height="16" viewBox="0 0 16 16" width="16" xmlns="http://www.w3.org/2000/svg"><g fill="#000"><path d="m13.5 0h-1c-.1326 0-.2598.0526784-.3536.146447-.0937.093768-.1464.220945-.1464.353553v1.5h-1.5c-.1326 0-.2598.05268-.3536.14645-.0937.09376-.1464.22094-.1464.35355v1c0 .13261.0527.25979.1464.35355.0938.09377.221.14645.3536.14645h1.5v1.5c0 .13261.0527.25979.1464.35355.0938.09377.221.14645.3536.14645h1c.1326 0 .2598-.05268.3536-.14645.0937-.09376.1464-.22094.1464-.35355v-1.5h1.5c.1326 0 .2598-.05268.3536-.14645.0937-.09376.1464-.22094.1464-.35355v-1c0-.13261-.0527-.25979-.1464-.35355-.0938-.09377-.221-.14645-.3536-.14645h-1.5v-1.5c0-.132608-.0527-.259785-.1464-.353553-.0938-.0937686-.221-.146447-.3536-.146447z"/><path d="m11.494 7.772c-.7684-.23886-1.4671-.66095-2.03609-1.22991-.56896-.56896-.99105-1.26773-1.22991-2.03609-.25201-.8114-.29603-1.67314-.128-2.506h-7.1c-.265216 0-.51957.10536-.707107.29289-.187536.18754-.292893.44189-.292893.70711v12c0 .2652.105357.5196.292893.7071.187537.1875.441891.2929.707107.2929h12c.2652 0 .5196-.1054.7071-.2929s.2929-.4419.2929-.7071v-7.1c-.8329.16803-1.6946.12401-2.506-.128zm.506 6.228h-10v-2h10z"/></g></svg>