<svg width="24" height="24" viewBox="0 0 24 24" fill="none" xmlns="http://www.w3.org/2000/svg">
<path fill-rule="evenodd" clip-rule="evenodd" d="M4.00024 14.5001C4.55253 14.5001 5.00024 14.9478 5.00024 15.5001V19.5001H19.6669V15.5001C19.6669 14.9478 20.1146 14.5001 20.6669 14.5001C21.2192 14.5001 21.6669 14.9478 21.6669 15.5001V20.5001C21.6669 21.0524 21.2192 21.5001 20.6669 21.5001H4.00024C3.44796 21.5001 3.00024 21.0524 3.00024 20.5001V15.5001C3.00024 14.9478 3.44796 14.5001 4.00024 14.5001Z" fill="black"/>
<path fill-rule="evenodd" clip-rule="evenodd" d="M12.3335 2.00012C12.8858 2.00012 13.3335 2.44784 13.3335 3.00012V15.5001C13.3335 16.0524 12.8858 16.5001 12.3335 16.5001C11.7812 16.5001 11.3335 16.0524 11.3335 15.5001V3.00012C11.3335 2.44784 11.7812 2.00012 12.3335 2.00012Z" fill="black"/>
<path fill-rule="evenodd" clip-rule="evenodd" d="M6.62642 9.79302C7.01695 9.40249 7.65011 9.40249 8.04064 9.79302L12.3335 14.0859L16.6264 9.79302C17.0169 9.40249 17.6501 9.40249 18.0406 9.79302C18.4312 10.1835 18.4312 10.8167 18.0406 11.2072L13.0406 16.2072C12.8531 16.3948 12.5987 16.5001 12.3335 16.5001C12.0683 16.5001 11.814 16.3948 11.6264 16.2072L6.62642 11.2072C6.2359 10.8167 6.2359 10.1835 6.62642 9.79302Z" fill="black"/>
</svg>
