<svg width="24" height="24" viewBox="0 0 24 24" fill="none" xmlns="http://www.w3.org/2000/svg">
<path fill-rule="evenodd" clip-rule="evenodd" d="M6.70708 7.2929C7.0976 7.68342 7.0976 8.31659 6.70708 8.70711L3.41418 12L6.70708 15.2929C7.0976 15.6834 7.0976 16.3166 6.70708 16.7071C6.31655 17.0976 5.68339 17.0976 5.29286 16.7071L1.99997 13.4142C1.21892 12.6332 1.21892 11.3668 1.99997 10.5858L5.29286 7.2929C5.68339 6.90237 6.31655 6.90237 6.70708 7.2929Z" fill="black"/>
<path fill-rule="evenodd" clip-rule="evenodd" d="M17.2928 7.2929C17.6834 6.90237 18.3165 6.90237 18.7071 7.2929L22.3535 10.9393C22.9393 11.5251 22.9393 12.4749 22.3535 13.0607L18.7071 16.7071C18.3165 17.0976 17.6834 17.0976 17.2928 16.7071C16.9023 16.3166 16.9023 15.6834 17.2928 15.2929L20.5857 12L17.2928 8.70711C16.9023 8.31659 16.9023 7.68342 17.2928 7.2929Z" fill="black"/>
<path fill-rule="evenodd" clip-rule="evenodd" d="M14.2425 3.02985C14.7783 3.1638 15.1041 3.70673 14.9701 4.24253L10.9701 20.2425C10.8362 20.7783 10.2933 21.1041 9.75746 20.9701C9.22167 20.8362 8.89591 20.2933 9.02985 19.7575L13.0299 3.75746C13.1638 3.22166 13.7067 2.8959 14.2425 3.02985Z" fill="black"/>
</svg>
