<svg width="16" height="26" viewBox="0 0 16 26" fill="none" xmlns="http://www.w3.org/2000/svg">
<rect width="16" height="26" fill="white"/>
<path d="M6.3 15.7C6.5 15.9 6.7 16 7 16C7.3 16 7.5 15.9 7.7 15.7L9 14.4L12.3 17.7C12.9 18.3 13.5 17.9 13.7 17.7L15.7 15.7C16.1 15.3 16.1 14.7 15.7 14.3L12.4 11L13.7 9.7C14.1 9.3 14.1 8.7 13.7 8.3L10.7 5.3C10.3 4.9 9.7 4.9 9.3 5.3L3.3 11.3C2.9 11.7 2.9 12.3 3.3 12.7L6.3 15.7ZM10 7.4L11.6 9L7 13.6L5.4 12L10 7.4Z" fill="black"/>
<path d="M16 19H0V21H16V19Z" fill="black"/>
<path d="M5.32533 16.5443L1.56885 14.6661L0.674448 16.4549L4.43093 18.3331L5.32533 16.5443Z" fill="black"/>
</svg>
