<svg width="15" height="20" viewBox="0 0 15 20" fill="none" xmlns="http://www.w3.org/2000/svg">
<g filter="url(#filter0_d)">
<path fill-rule="evenodd" clip-rule="evenodd" d="M5.23011 1.16321C5.01982 0.652528 4.43536 0.409003 3.92468 0.619286C3.41399 0.829568 3.17047 1.41403 3.38075 1.92471L4.64704 4.99998H2C1.4 4.99998 1 5.39998 1 5.99998V12C1 12.6 1.4 13 2 13H7.7L8.0324 13.2216L9.61925 17.0754C9.82953 17.586 10.414 17.8296 10.9247 17.6193C11.4354 17.409 11.6789 16.8245 11.4686 16.3139L11.0137 15.2091L13.4 16.8C14.1 17.2 15 16.8 15 16V1.99998C15 1.19998 14.1 0.699982 13.4 1.19998L7.7 4.99998H6.80995L5.23011 1.16321Z" fill="white"/>
</g>
<defs>
<filter id="filter0_d" x="0" y="0.543701" width="15" height="19.1512" filterUnits="userSpaceOnUse" color-interpolation-filters="sRGB">
<feFlood flood-opacity="0" result="BackgroundImageFix"/>
<feColorMatrix in="SourceAlpha" type="matrix" values="0 0 0 0 0 0 0 0 0 0 0 0 0 0 0 0 0 0 127 0"/>
<feOffset dx="-1" dy="2"/>
<feColorMatrix type="matrix" values="0 0 0 0 0 0 0 0 0 0 0 0 0 0 0 0 0 0 1 0"/>
<feBlend mode="normal" in2="BackgroundImageFix" result="effect1_dropShadow"/>
<feBlend mode="normal" in="SourceGraphic" in2="effect1_dropShadow" result="shape"/>
</filter>
</defs>
</svg>
