<svg width="32" height="32" viewBox="0 0 32 32" fill="none" xmlns="http://www.w3.org/2000/svg">
<path d="M12 1H5C4.73478 1 4.48043 1.10536 4.29289 1.29289C4.10536 1.48043 4 1.73478 4 2V30C4 30.2652 4.10536 30.5196 4.29289 30.7071C4.48043 30.8946 4.73478 31 5 31H12C12.2652 31 12.5196 30.8946 12.7071 30.7071C12.8946 30.5196 13 30.2652 13 30V2C13 1.73478 12.8946 1.48043 12.7071 1.29289C12.5196 1.10536 12.2652 1 12 1Z" fill="black"/>
<path d="M27 1H20C19.7348 1 19.4804 1.10536 19.2929 1.29289C19.1054 1.48043 19 1.73478 19 2V30C19 30.2652 19.1054 30.5196 19.2929 30.7071C19.4804 30.8946 19.7348 31 20 31H27C27.2652 31 27.5196 30.8946 27.7071 30.7071C27.8946 30.5196 28 30.2652 28 30V2C28 1.73478 27.8946 1.48043 27.7071 1.29289C27.5196 1.10536 27.2652 1 27 1Z" fill="black"/>
</svg>
