<svg width="16" height="16" viewBox="0 0 16 16" fill="none" xmlns="http://www.w3.org/2000/svg">
<g clip-path="url(#clip0)">
<path d="M12.6489 8.9L13.8619 7.63C14.4638 7.02471 14.8488 6.23759 14.9573 5.39093C15.0658 4.54428 14.8917 3.68549 14.4619 2.948L15.7029 1.707C15.8044 1.61648 15.8865 1.5062 15.9439 1.3829C16.0014 1.2596 16.0331 1.12588 16.0371 0.989904C16.0411 0.853932 16.0173 0.718575 15.9672 0.592112C15.917 0.46565 15.8417 0.350741 15.7456 0.254417C15.6496 0.158093 15.5349 0.0823785 15.4085 0.0319055C15.2822 -0.0185674 15.1469 -0.0427374 15.0109 -0.0391258C14.875 -0.0355141 14.7411 -0.00419675 14.6177 0.0529104C14.4942 0.110017 14.3837 0.191714 14.2929 0.293L13.0519 1.534C12.3144 1.10424 11.4556 0.930073 10.609 1.03857C9.76232 1.14707 8.9752 1.53216 8.36991 2.134L7.12891 3.379L12.6489 8.9Z" fill="black"/>
<path d="M9.53057 9.53L8.47057 8.47L6.60057 10.345L5.66057 9.405L7.53057 7.53L6.47057 6.47L4.60057 8.345L3.35157 7.1L2.13857 8.37C1.53673 8.97529 1.15164 9.76241 1.04314 10.6091C0.934642 11.4557 1.1088 12.3145 1.53857 13.052L0.293569 14.293C0.198059 14.3852 0.121877 14.4956 0.0694681 14.6176C0.0170591 14.7396 -0.0105272 14.8708 -0.011681 15.0036C-0.0128348 15.1364 0.0124669 15.2681 0.0627478 15.391C0.113029 15.5139 0.187282 15.6255 0.281174 15.7194C0.375067 15.8133 0.486719 15.8875 0.609615 15.9378C0.732512 15.9881 0.864191 16.0134 0.996971 16.0123C1.12975 16.0111 1.26097 15.9835 1.38297 15.9311C1.50498 15.8787 1.61532 15.8025 1.70757 15.707L2.94857 14.466C3.68606 14.8958 4.54485 15.0699 5.3915 14.9614C6.23816 14.8529 7.02528 14.4678 7.63057 13.866L8.87157 12.625L7.65557 11.405L9.53057 9.53Z" fill="black"/>
</g>
<defs>
<clipPath id="clip0">
<rect width="16" height="16" fill="white"/>
</clipPath>
</defs>
</svg>
