<svg width="19" height="19" viewBox="0 0 19 19" fill="none" xmlns="http://www.w3.org/2000/svg">
<path fill-rule="evenodd" clip-rule="evenodd" d="M9.52955 2.74072C5.66558 2.74072 2.5 5.90631 2.5 9.77027C2.5 13.6342 5.66558 16.7998 9.52955 16.7998C13.3935 16.7998 16.5591 13.6342 16.5591 9.77027H18.5591C18.5591 14.7388 14.4981 18.7998 9.52955 18.7998C4.56101 18.7998 0.5 14.7388 0.5 9.77027C0.5 4.80174 4.56101 0.740723 9.52955 0.740723C13.0437 0.740723 16.1235 2.72569 17.5757 5.7207L15.776 6.59325C14.6587 4.28876 12.2784 2.74072 9.52955 2.74072Z" fill="black"/>
<path fill-rule="evenodd" clip-rule="evenodd" d="M18.5238 0.643483L17.613 7.36059L10.815 6.45419L11.0794 4.47173L15.8993 5.11439L16.542 0.374756L18.5238 0.643483Z" fill="black"/>
</svg>
