<svg width="16" height="16" viewBox="0 0 16 16" fill="none" xmlns="http://www.w3.org/2000/svg">
<path d="M15.7173 7.504L12.2883 1.504C12.1113 1.192 11.7803 1 11.4213 1H4.58134C4.22234 1 3.89134 1.192 3.71334 1.504L0.284344 7.504C0.108344 7.811 0.108344 8.189 0.284344 8.496L3.71334 14.496C3.89134 14.808 4.22234 15 4.58134 15H11.4203C11.7793 15 12.1103 14.808 12.2883 14.496L15.7173 8.496C15.8933 8.189 15.8933 7.811 15.7173 7.504ZM8.00134 11C6.34434 11 5.00134 9.657 5.00134 8C5.00134 6.343 6.34434 5 8.00134 5C9.65834 5 11.0013 6.343 11.0013 8C11.0013 9.657 9.65834 11 8.00134 11Z" fill="black"/>
</svg>
