<svg width="16" height="16" viewBox="0 0 16 16" fill="none" xmlns="http://www.w3.org/2000/svg">
<path d="M12 6C13.654 6 15 4.654 15 3C15 1.346 13.654 0 12 0C10.346 0 9 1.346 9 3C9 3.223 9.029 3.439 9.075 3.649L5.855 5.661C5.343 5.254 4.704 5 4 5C2.346 5 1 6.346 1 8C1 9.654 2.346 11 4 11C4.704 11 5.343 10.746 5.855 10.339L9.075 12.351C9.029 12.561 9 12.777 9 13C9 14.654 10.346 16 12 16C13.654 16 15 14.654 15 13C15 11.346 13.654 10 12 10C11.296 10 10.657 10.254 10.145 10.661L6.925 8.649C6.971 8.439 7 8.223 7 8C7 7.777 6.971 7.561 6.925 7.351L10.145 5.339C10.657 5.746 11.296 6 12 6Z" fill="white"/>
</svg>
