<svg width="16" height="14" viewBox="0 0 16 14" fill="none" xmlns="http://www.w3.org/2000/svg">
<path d="M2.75 4C3.7165 4 4.5 3.2165 4.5 2.25C4.5 1.2835 3.7165 0.5 2.75 0.5C1.7835 0.5 1 1.2835 1 2.25C1 3.2165 1.7835 4 2.75 4Z" fill="black"/>
<path d="M13.25 4C14.2165 4 15 3.2165 15 2.25C15 1.2835 14.2165 0.5 13.25 0.5C12.2835 0.5 11.5 1.2835 11.5 2.25C11.5 3.2165 12.2835 4 13.25 4Z" fill="black"/>
<path d="M13.5 5C12.8077 5.06448 12.1379 5.27981 11.5377 5.63087C10.9375 5.98192 10.4215 6.46017 10.026 7.032C9.7597 7.34721 9.46551 7.63772 9.14697 7.9C9.32785 8.1114 9.4529 8.36473 9.51072 8.63688C9.56854 8.90903 9.55728 9.19132 9.47797 9.458C10.0614 9.13651 10.578 8.70646 11 8.191V13C11 13.2652 11.1053 13.5196 11.2929 13.7071C11.4804 13.8946 11.7348 14 12 14H15C15.2652 14 15.5195 13.8946 15.7071 13.7071C15.8946 13.5196 16 13.2652 16 13V7.5C16 6.83696 15.7366 6.20107 15.2677 5.73223C14.7989 5.26339 14.163 5 13.5 5Z" fill="black"/>
<path d="M7.8 8.25C7.107 8.25 6.656 7.787 5.977 7.032C5.58113 6.4598 5.06466 5.98133 4.46393 5.63026C3.86321 5.27919 3.19283 5.06406 2.5 5C1.83696 5 1.20107 5.26339 0.732233 5.73223C0.263392 6.20107 0 6.83696 0 7.5L0 13C0 13.2652 0.105357 13.5196 0.292893 13.7071C0.48043 13.8946 0.734784 14 1 14H4C4.26522 14 4.51957 13.8946 4.70711 13.7071C4.89464 13.5196 5 13.2652 5 13V8.191C5.32087 8.64326 5.73886 9.01801 6.22335 9.28776C6.70784 9.55752 7.24655 9.71546 7.8 9.75C7.99891 9.75 8.18968 9.67098 8.33033 9.53033C8.47098 9.38968 8.55 9.19891 8.55 9C8.55 8.80109 8.47098 8.61032 8.33033 8.46967C8.18968 8.32902 7.99891 8.25 7.8 8.25Z" fill="black"/>
</svg>
