<svg fill="none" height="16" viewBox="0 0 16 16" width="16" xmlns="http://www.w3.org/2000/svg" xmlns:xlink="http://www.w3.org/1999/xlink"><clipPath id="a"><path d="m0 0h16v16h-16z"/></clipPath><g clip-path="url(#a)"><path d="m15.7999 12.5259-6.31705-11.64596c-.15579-.288936-.39338-.525479-.683-.68-.39347-.210569-.85418-.2572598-1.2819-.1299166-.42772.1273436-.78787.4184196-1.0021.8099166l-6.315996 11.64596c-.1381078.2563-.20716094.5441-.20037449.8352.00678645.291.08917899.5753.23908149.8249.149902.2495.362157.4558.615906.5985.253753.1427.540263.217.831383.2154h12.62805c.279 0 .5537-.0686.8-.2.195-.1035.3677-.2446.5079-.4152s.2453-.3673.3092-.5787.0853-.4333.0629-.653c-.0223-.2197-.0879-.4328-.193-.6271zm-7.80005.474c-.19778 0-.39112-.0586-.55557-.1685s-.29262-.2661-.36831-.4488c-.07568-.1827-.09549-.3838-.0569-.5778.03858-.1939.13382-.3721.27368-.512.13985-.1398.31803-.2351.51201-.2736.19398-.0386.39505-.0188.57778.0569.18272.0756.3389.2038.44878.3683.10988.1644.16853.3578.16853.5555 0 .2653-.10535.5196-.29289.7071-.18754.1876-.44189.2929-.70711.2929zm1-3.49996c0 .13261-.05267.25979-.14644.35355-.09377.09377-.22095.14645-.35356.14645h-1c-.1326 0-.25978-.05268-.35355-.14645-.09377-.09376-.14645-.22094-.14645-.35355v-4c0-.13261.05268-.25979.14645-.35355.09377-.09377.22095-.14645.35355-.14645h1c.13261 0 .25979.05268.35356.14645.09377.09376.14644.22094.14644.35355z" fill="#808080"/></g></svg>